<?xml version="1.0" encoding="UTF-8"?> <svg xmlns="http://www.w3.org/2000/svg" width="243" height="42" viewBox="0 0 243 42" fill="none"><g clip-path="url(#clip0_1719_657)"><path d="M28.8554 9.78168C31.767 12.5646 33.4348 16.2863 33.5349 20.2939C33.6064 23.0149 32.701 25.5405 31.138 27.5371C29.1318 30.1008 26.0391 31.783 22.5366 31.8735C20.3113 31.9307 18.1859 31.1159 16.5657 29.5719C14.9408 28.0327 14.0163 25.9503 13.9591 23.7201C13.921 22.3763 14.3261 21.0849 15.1028 20.008C15.1028 20.008 15.1123 19.9889 15.1219 19.9794C15.3077 19.7316 15.6603 19.6792 15.9081 19.865C16.1226 20.027 16.194 20.3034 16.0892 20.5417V20.5512C15.7032 21.2946 15.5126 22.1238 15.5317 22.9815C15.5746 24.5541 16.2226 26.017 17.3663 27.1035C18.5004 28.1804 19.992 28.7523 21.5693 28.7141C25.4101 28.6093 28.4551 25.4023 28.3503 21.5662C28.2312 16.9582 24.3856 13.3128 19.7775 13.4271C16.3037 13.5177 13.149 15.3332 11.2858 18.4211C10.2899 20.0747 9.83716 22.0142 9.90388 23.9393C10.0182 27.2083 11.4049 30.2295 13.7733 32.5121C15.4983 34.1752 17.4854 35.0996 19.4726 35.5333C23.261 36.3624 27.0303 35.4189 28.8983 34.4468C34.3164 31.6305 36.6657 27.4513 37.3471 22.1571C38.772 11.1255 29.2033 1.97138 19.2248 1.59969C19.0008 1.58063 18.8007 1.41861 18.7387 1.18987C18.6625 0.894424 18.834 0.594212 19.1295 0.513202C19.1819 0.498906 19.2295 0.494141 19.282 0.494141C22.3889 0.560855 25.5769 1.36619 28.4694 2.88155C33.9924 5.76931 38.4575 11.2351 39.3057 19.0502C39.8442 24.006 38.3383 29.4957 34.8978 33.8273C32.3531 37.0296 28.7553 39.6028 24.1473 40.8609C17.3949 42.705 10.9379 40.0079 10.9379 40.0079C5.01946 37.5395 1.37878 32.3596 0.320891 26.7127C-0.794185 20.7418 0.973735 14.2563 5.98681 9.9294C8.12643 8.22343 10.6139 6.9654 13.2872 6.25537C13.2872 6.25537 22.327 3.53916 28.8554 9.78168Z" fill="url(#paint0_linear_1719_657)"></path><path d="M63.6133 18.7357C63.1559 18.7357 62.7032 18.5832 62.3696 18.2687C60.9353 16.9249 59.2055 16.1291 57.0468 16.1291C53.0678 16.1291 49.9989 19.4553 49.9989 22.9387C49.9989 26.4221 53.1869 29.8007 57.1945 29.8007C59.2912 29.8007 60.778 29.0335 62.1599 27.7802C62.4935 27.48 62.9319 27.3275 63.3798 27.3275H63.4466C65.2097 27.3275 66.0008 29.5529 64.6236 30.6584C62.6222 32.2643 59.9727 33.2079 57.2851 33.2079C51.0854 33.2079 45.9961 28.4998 45.9961 22.891C45.9961 17.2823 51.0854 12.7314 57.1993 12.7314C60.0775 12.7314 62.7794 13.7131 64.8094 15.4191C66.1532 16.5532 65.3813 18.7405 63.6229 18.7405L63.6133 18.7357Z" fill="#2B2A29"></path><path d="M69.5316 12.7217C70.8182 12.7217 71.7856 13.5985 71.7856 14.7708C71.7856 15.862 70.8182 16.7388 69.5316 16.7388C68.3308 16.7388 67.3682 15.862 67.3682 14.7708C67.3682 13.5985 68.3355 12.7217 69.5316 12.7217ZM67.6303 30.8536V19.984C67.6303 18.9118 68.5023 18.0397 69.5745 18.0397C70.6467 18.0397 71.5187 18.9118 71.5187 19.984V30.8536C71.5187 31.9258 70.6467 32.7978 69.5745 32.7978C68.5023 32.7978 67.6303 31.9258 67.6303 30.8536Z" fill="#2B2A29"></path><path d="M81.3594 31.9592C81.3594 32.4262 80.983 32.8027 80.516 32.8027H79.3103C76.2701 32.8027 74.0161 30.6774 74.0161 27.4846V13.9655C74.0161 13.4985 74.3926 13.1221 74.8596 13.1221H77.0659C77.5329 13.1221 77.9093 13.4985 77.9093 13.9655V17.2012C77.9093 17.6682 78.2858 18.0446 78.7528 18.0446H80.5207C80.9877 18.0446 81.3642 18.4211 81.3642 18.8881V20.3415C81.3642 20.8085 80.9877 21.1849 80.5207 21.1849H78.7528C78.2858 21.1849 77.9093 21.5614 77.9093 22.0284V27.4894C77.9093 29.1668 78.7576 29.405 80.3968 29.4289C80.9305 29.4289 81.3642 29.8625 81.3642 30.3962V31.964L81.3594 31.9592Z" fill="#2B2A29"></path><path d="M97.4042 32.8028H96.6846C95.8983 32.8028 95.2598 32.1642 95.2598 31.3779V30.9681C93.9731 32.3501 92.2195 33.284 90.2276 33.284C85.4909 33.284 81.5405 29.7482 81.5405 25.4404C81.5405 21.1326 85.429 17.5396 90.2276 17.5396C95.0263 17.5396 98.829 20.8657 98.829 25.4642V31.3779C98.829 32.1642 98.1904 32.8028 97.4042 32.8028ZM90.2276 20.7799C87.4781 20.7799 85.4576 23.0387 85.4576 25.4356C85.4576 27.8326 87.4161 30.0389 90.2276 30.0389C93.0392 30.0389 94.9357 27.9898 94.9357 25.4642C94.9357 23.0959 92.9772 20.7847 90.2276 20.7847V20.7799Z" fill="#2B2A29"></path><path d="M111.838 12.7217C113.125 12.7217 114.092 13.5985 114.092 14.7708C114.092 15.862 113.125 16.7388 111.838 16.7388C110.637 16.7388 109.675 15.862 109.675 14.7708C109.675 13.5985 110.642 12.7217 111.838 12.7217ZM109.937 30.8536V19.984C109.937 18.9118 110.809 18.0397 111.881 18.0397C112.953 18.0397 113.825 18.9118 113.825 19.984V30.8536C113.825 31.9258 112.953 32.7978 111.881 32.7978C110.809 32.7978 109.937 31.9258 109.937 30.8536Z" fill="#2B2A29"></path><path d="M124.328 33.284C119.591 33.284 115.669 29.7482 115.669 25.4404C115.669 21.1326 119.529 17.5396 124.328 17.5396C129.127 17.5396 132.929 21.0516 132.929 25.3832C132.929 29.7148 129.246 33.284 124.328 33.284ZM124.328 20.7847C121.578 20.7847 119.558 23.0435 119.558 25.4404C119.558 27.8373 121.516 30.0437 124.328 30.0437C127.139 30.0437 129.036 27.8897 129.036 25.469C129.036 23.0482 127.078 20.7895 124.328 20.7895V20.7847Z" fill="#2B2A29"></path><path d="M134.506 24.3443C134.506 20.1699 137.956 17.5347 142.259 17.5347C146.563 17.5347 150.013 20.1651 150.013 24.3443V30.8584C150.013 31.9306 149.141 32.8026 148.068 32.8026C146.996 32.8026 146.124 31.9306 146.124 30.8584V24.2918C146.124 22.3524 144.399 20.7798 142.264 20.7798C140.129 20.7798 138.404 22.3476 138.404 24.2918V30.8584C138.404 31.9306 137.532 32.8026 136.46 32.8026C135.388 32.8026 134.516 31.9306 134.516 30.8584V24.3443H134.506Z" fill="#2B2A29"></path><path d="M107.964 31.9592C107.964 32.4262 107.587 32.8027 107.12 32.8027H105.915C102.875 32.8027 100.621 30.6774 100.621 27.4846V13.9655C100.621 13.4985 100.997 13.1221 101.464 13.1221H103.67C104.137 13.1221 104.514 13.4985 104.514 13.9655V17.2012C104.514 17.6682 104.89 18.0446 105.357 18.0446H107.125C107.592 18.0446 107.969 18.4211 107.969 18.8881V20.3415C107.969 20.8085 107.592 21.1849 107.125 21.1849H105.357C104.89 21.1849 104.514 21.5614 104.514 22.0284V27.4894C104.514 29.1668 105.362 29.405 107.001 29.4289C107.535 29.4289 107.969 29.8625 107.969 30.3962V31.964L107.964 31.9592Z" fill="#2B2A29"></path><path d="M180.477 25.1114C179.319 29.8815 175.016 33.2791 169.979 33.2791C163.989 33.2791 158.895 28.8426 158.895 23.0004C158.895 17.1582 163.961 12.7217 169.865 12.7217C172.857 12.7217 176.088 14.0274 178.142 16.2194C178.19 16.2671 178.233 16.3147 178.285 16.3671C179.519 17.6633 178.433 19.7457 176.636 19.5265C176.164 19.4693 175.721 19.2549 175.416 18.9023C174.93 18.3352 174.396 17.8348 173.796 17.4155C172.657 16.5863 171.199 16.1384 169.779 16.1384C165.805 16.1384 162.712 19.2406 162.712 23.029C162.712 23.9392 162.931 24.8684 163.289 25.7023C164.461 28.3661 166.963 29.8672 169.974 29.8672C172.266 29.8672 174.33 28.7997 175.593 26.8412C175.836 26.46 175.545 25.9644 175.078 25.9644H170.308C169.345 25.9644 168.554 25.1924 168.554 24.2584C168.554 23.3244 169.341 22.5525 170.308 22.5525H177.708C178.742 22.5525 179.591 22.5811 180.191 23.2863C180.62 23.801 180.61 24.5015 180.467 25.1114H180.477Z" fill="#2B2A29"></path><path d="M189.441 20.2845C189.441 20.6943 189.131 21.0279 188.726 21.085C186.863 21.3281 186.091 22.2049 186.091 24.1825V32.4645C186.091 32.9077 185.733 33.2699 185.285 33.2699H183.208C182.765 33.2699 182.402 32.9125 182.402 32.4645V24.2921C182.402 19.9271 184.642 17.9447 188.564 17.5873C189.031 17.5444 189.441 17.9209 189.441 18.3879V20.2845Z" fill="#2B2A29"></path><path d="M224.537 26.2554C224.537 30.5585 221.039 33.2747 216.679 33.2747C212.348 33.2747 208.821 30.5585 208.821 26.2554V20.0177C208.821 18.9121 209.703 18.0115 210.794 18.0115C211.885 18.0115 212.767 18.9073 212.767 20.0177V26.3078C212.767 28.3093 214.516 29.9294 216.679 29.9294C218.876 29.9294 220.596 28.314 220.596 26.3078V20.0177C220.596 18.9121 221.478 18.0115 222.569 18.0115C223.66 18.0115 224.542 18.9073 224.542 20.0177V26.2554H224.537Z" fill="#2B2A29"></path><path d="M228.206 37.6444C227.191 37.6444 226.367 36.82 226.367 35.805V25.412C226.367 20.7944 229.764 17.5063 234.573 17.5063C239.381 17.5063 242.64 21.1947 242.64 25.4405C242.64 29.6864 239.462 33.2413 234.93 33.2413C233.162 33.2413 231.394 32.6028 230.15 31.4114H230.041V35.8098C230.041 36.8248 229.216 37.6492 228.201 37.6492L228.206 37.6444ZM230.045 25.574C230.045 27.99 231.952 30.0057 234.491 30.0057C237.17 30.0057 238.966 27.909 238.966 25.4167C238.966 22.9245 237.279 20.7753 234.544 20.7753C231.809 20.7753 230.041 22.9769 230.041 25.5787L230.045 25.574Z" fill="#2B2A29"></path><path d="M198.471 33.284C193.734 33.284 189.812 29.7482 189.812 25.4404C189.812 21.1326 193.672 17.5396 198.471 17.5396C203.27 17.5396 207.072 21.0516 207.072 25.3832C207.072 29.7148 203.389 33.284 198.471 33.284ZM198.471 20.7847C195.721 20.7847 193.701 23.0435 193.701 25.4404C193.701 27.8373 195.659 30.0437 198.471 30.0437C201.283 30.0437 203.179 27.8897 203.179 25.469C203.179 23.0482 201.221 20.7895 198.471 20.7895V20.7847Z" fill="#2B2A29"></path></g><defs><linearGradient id="paint0_linear_1719_657" x1="5.71996" y1="36.6674" x2="34.6595" y2="7.72784" gradientUnits="userSpaceOnUse"><stop stop-color="#E61B73"></stop><stop offset="1" stop-color="#F19001"></stop></linearGradient><clipPath id="clip0_1719_657"><rect width="242.64" height="41.0116" fill="white" transform="translate(0 0.494141)"></rect></clipPath></defs></svg> 