<?xml version="1.0" encoding="utf-8"?>
<!-- Generator: Adobe Illustrator 16.0.4, SVG Export Plug-In . SVG Version: 6.00 Build 0)  -->
<!DOCTYPE svg PUBLIC "-//W3C//DTD SVG 1.1//EN" "http://www.w3.org/Graphics/SVG/1.1/DTD/svg11.dtd">
<svg version="1.1" id="Trademark" xmlns="http://www.w3.org/2000/svg" xmlns:xlink="http://www.w3.org/1999/xlink" x="0px" y="0px"
	 width="396.851px" height="99.213px" viewBox="0 0 396.851 99.213" enable-background="new 0 0 396.851 99.213"
	 xml:space="preserve">
<g>
	<path d="M105.215,31.779h-8.837v-4.85h24.045v4.85h-8.837v24.826h-6.371V31.779z"/>
	<path d="M131.397,26.929v18.085c0,0.822,0.048,1.665,0.144,2.527c0.096,0.863,0.349,1.651,0.76,2.364
		c0.412,0.713,1.049,1.294,1.912,1.746c0.863,0.452,2.076,0.679,3.638,0.679c0.247,0,0.609-0.014,1.089-0.041
		c0.479-0.027,1-0.124,1.562-0.288s1.116-0.425,1.665-0.781c0.548-0.355,1.027-0.849,1.438-1.479
		c0.165-0.219,0.301-0.466,0.411-0.739c0.109-0.274,0.206-0.61,0.288-1.008c0.082-0.396,0.144-0.862,0.185-1.397
		c0.041-0.534,0.062-1.171,0.062-1.911V26.929h6.207v18.537c0,2.22-0.397,4.077-1.192,5.574c-0.795,1.496-1.823,2.699-3.083,3.611
		s-2.658,1.562-4.192,1.948c-1.535,0.387-3.056,0.58-4.562,0.58c-0.74,0-1.61-0.055-2.61-0.165c-1-0.111-2.014-0.353-3.042-0.726
		c-1.027-0.373-2.035-0.898-3.021-1.575s-1.823-1.581-2.507-2.713c-0.713-1.15-1.145-2.308-1.294-3.473
		c-0.151-1.165-0.226-2.446-0.226-3.844V26.929H131.397z M132.342,18.425h4.192v4.85h-4.192V18.425z M139.412,18.425h4.192v4.85
		h-4.192V18.425z"/>
	<path d="M162.305,26.929l7.769,23.387l7.809-23.387h6.289l-10.934,29.676h-6.946l-10.933-29.676H162.305z"/>
	<path d="M189.72,26.929h10.604c0.383,0,0.85,0.007,1.398,0.021c0.547,0.014,1.137,0.062,1.766,0.145
		c0.631,0.082,1.262,0.22,1.891,0.411c0.631,0.192,1.221,0.467,1.768,0.823c1.125,0.714,1.953,1.599,2.488,2.655
		c0.533,1.056,0.801,2.188,0.801,3.395c0,1.043-0.186,2.017-0.555,2.922c-0.371,0.905-0.885,1.688-1.541,2.346
		c-0.631,0.632-1.254,1.077-1.871,1.338c-0.615,0.261-1.158,0.46-1.623,0.597c0.713,0.191,1.328,0.425,1.85,0.698
		c0.52,0.273,0.959,0.623,1.314,1.047s0.645,0.958,0.863,1.601c0.219,0.644,0.385,1.43,0.494,2.36
		c0.109,0.876,0.211,1.697,0.309,2.463c0.096,0.767,0.211,1.52,0.35,2.258c0.137,0.739,0.293,1.484,0.473,2.237
		c0.178,0.753,0.416,1.54,0.719,2.36h-4.398c-0.164-0.493-0.314-1.075-0.451-1.747c-0.139-0.671-0.262-1.362-0.371-2.075
		s-0.205-1.418-0.287-2.117c-0.082-0.698-0.164-1.336-0.246-1.911c-0.139-1.068-0.316-1.959-0.535-2.672
		c-0.219-0.712-0.561-1.28-1.023-1.705c-0.465-0.425-1.092-0.727-1.885-0.904c-0.791-0.179-1.803-0.268-3.029-0.268h-5.16v13.399
		h-4.11V26.929z M193.748,39.753h6.473c0.109,0,0.32,0,0.635,0s0.67-0.021,1.064-0.062c0.396-0.041,0.793-0.11,1.189-0.206
		c0.395-0.097,0.73-0.227,1.002-0.393c0.137-0.082,0.32-0.213,0.555-0.392c0.232-0.179,0.457-0.427,0.676-0.743
		s0.402-0.695,0.553-1.136s0.225-0.977,0.225-1.61c0-1.21-0.232-2.139-0.695-2.786c-0.465-0.646-1.012-1.121-1.639-1.425
		c-0.629-0.302-1.277-0.48-1.947-0.536c-0.668-0.055-1.207-0.083-1.617-0.083h-6.473V39.753z"/>
	<path d="M216.601,26.93h3.904v12.083c0.63-1.096,1.542-1.938,2.733-2.527c1.192-0.59,2.514-0.884,3.967-0.884
		c0.548,0,1.137,0.055,1.768,0.164c0.63,0.109,1.246,0.288,1.85,0.534c0.602,0.247,1.157,0.583,1.664,1.007
		c0.507,0.426,0.911,0.953,1.213,1.583c0.109,0.22,0.205,0.445,0.287,0.678c0.083,0.233,0.15,0.534,0.206,0.904
		c0.055,0.37,0.103,0.815,0.144,1.336s0.062,1.151,0.062,1.891v12.906h-3.945V44.398c0-0.466-0.021-1.028-0.062-1.686
		s-0.206-1.295-0.493-1.911c-0.288-0.616-0.733-1.144-1.336-1.583c-0.604-0.438-1.453-0.657-2.549-0.657
		c-0.713,0-1.343,0.097-1.891,0.288c-0.549,0.191-1.021,0.432-1.418,0.719c-0.397,0.288-0.72,0.59-0.966,0.904
		c-0.247,0.315-0.438,0.596-0.575,0.843c-0.329,0.575-0.521,1.288-0.576,2.138s-0.082,1.589-0.082,2.219v10.934h-3.904V26.93z"/>
	<path d="M243.439,46.987c-0.027,1.063,0.068,2.044,0.288,2.943c0.219,0.899,0.568,1.683,1.048,2.351
		c0.479,0.668,1.096,1.186,1.85,1.553c0.753,0.368,1.664,0.552,2.733,0.552c1.26,0,2.343-0.339,3.247-1.017
		c0.904-0.679,1.438-1.751,1.603-3.217h3.863c-0.055,0.521-0.178,1.172-0.369,1.952c-0.192,0.781-0.658,1.569-1.397,2.363
		c-0.22,0.247-0.521,0.535-0.904,0.863c-0.385,0.329-0.863,0.631-1.438,0.904c-0.576,0.274-1.254,0.507-2.035,0.699
		c-0.78,0.191-1.692,0.287-2.733,0.287c-3.261,0-5.672-0.945-7.233-2.836c-1.562-1.891-2.343-4.466-2.343-7.727
		c0-2.028,0.273-3.87,0.821-5.528s1.63-3.049,3.247-4.172c0.493-0.356,1.008-0.631,1.542-0.822s1.055-0.343,1.562-0.452
		s0.979-0.178,1.418-0.206c0.438-0.026,0.808-0.041,1.11-0.041c1.534,0,2.828,0.206,3.884,0.617c1.055,0.41,1.911,0.952,2.569,1.623
		c0.657,0.672,1.164,1.425,1.521,2.261c0.355,0.836,0.609,1.686,0.76,2.548c0.15,0.863,0.227,1.692,0.227,2.487s0,1.466,0,2.014
		H243.439z M254.331,44.274c0-0.493-0.041-1.089-0.123-1.788c-0.082-0.698-0.295-1.362-0.637-1.993
		c-0.343-0.63-0.857-1.171-1.542-1.623s-1.616-0.679-2.795-0.679c-0.63,0-1.273,0.103-1.932,0.309
		c-0.657,0.205-1.253,0.548-1.788,1.027c-0.534,0.479-0.979,1.104-1.336,1.87c-0.356,0.768-0.548,1.727-0.575,2.877H254.331z"/>
	<path d="M263.127,26.93h4.645v4.233h-4.645V26.93z M263.538,35.971h3.864v20.634h-3.864V35.971z"/>
	<path d="M274.267,38.356l-0.041-2.385h3.863l0.041,3.33c0.109-0.22,0.295-0.535,0.556-0.945c0.26-0.411,0.644-0.822,1.15-1.233
		s1.157-0.774,1.952-1.089c0.795-0.315,1.781-0.473,2.96-0.473c0.466,0,1.116,0.068,1.952,0.205
		c0.836,0.138,1.665,0.445,2.486,0.925c0.822,0.479,1.534,1.186,2.138,2.117c0.603,0.932,0.904,2.192,0.904,3.781v14.016h-3.946
		V43.494c0-0.685-0.068-1.329-0.205-1.933c-0.138-0.602-0.438-1.137-0.904-1.603c-0.493-0.466-1.062-0.815-1.706-1.048
		s-1.295-0.35-1.952-0.35c-0.713,0-1.391,0.123-2.034,0.37c-0.645,0.246-1.213,0.631-1.706,1.15
		c-0.493,0.521-0.891,1.165-1.192,1.932c-0.302,0.768-0.452,1.672-0.452,2.713v11.879h-3.863V38.356z"/>
	<path d="M298.722,26.93h3.863v29.635h-3.863V26.93z"/>
	<path d="M322.027,56.605c-0.138-0.521-0.233-1.027-0.288-1.521s-0.082-1.014-0.082-1.562c-0.466,0.85-0.979,1.521-1.541,2.015
		c-0.562,0.493-1.131,0.87-1.706,1.13s-1.13,0.425-1.664,0.493c-0.535,0.068-1.021,0.103-1.46,0.103
		c-1.178,0-2.219-0.157-3.123-0.473c-0.904-0.314-1.665-0.746-2.281-1.294c-0.617-0.548-1.083-1.192-1.397-1.933
		c-0.315-0.739-0.473-1.534-0.473-2.384c0-0.411,0.047-0.876,0.144-1.397c0.096-0.52,0.273-1.048,0.534-1.582
		s0.623-1.068,1.09-1.604c0.465-0.534,1.082-1.021,1.85-1.459c0.547-0.301,1.15-0.541,1.808-0.719
		c0.658-0.179,1.315-0.315,1.974-0.411c0.657-0.096,1.28-0.157,1.87-0.186c0.589-0.026,1.089-0.041,1.5-0.041
		c0.493,0,0.932,0.008,1.315,0.021c0.383,0.015,0.876,0.049,1.479,0.104c0-0.631-0.007-1.186-0.021-1.665s-0.041-0.891-0.082-1.233
		c-0.041-0.342-0.11-0.65-0.206-0.925c-0.096-0.273-0.24-0.52-0.432-0.739c-0.384-0.521-0.938-0.877-1.664-1.069
		c-0.727-0.191-1.363-0.287-1.911-0.287c-0.986,0-1.754,0.144-2.302,0.432c-0.549,0.287-0.96,0.623-1.233,1.007
		c-0.274,0.384-0.445,0.774-0.514,1.171c-0.068,0.397-0.103,0.692-0.103,0.884h-3.864c0.055-0.548,0.157-1.157,0.309-1.829
		c0.15-0.671,0.527-1.362,1.13-2.075c0.384-0.438,0.85-0.802,1.398-1.089c0.547-0.288,1.115-0.515,1.705-0.679
		c0.589-0.164,1.192-0.28,1.809-0.35c0.616-0.067,1.198-0.103,1.747-0.103c0.739,0,1.486,0.062,2.24,0.185
		c0.753,0.124,1.459,0.309,2.116,0.556c0.658,0.246,1.247,0.562,1.768,0.945s0.918,0.836,1.192,1.356
		c0.328,0.63,0.527,1.198,0.596,1.705c0.068,0.508,0.103,0.994,0.103,1.459l-0.164,9.865c0,0.082,0.006,0.302,0.021,0.657
		c0.014,0.356,0.026,0.781,0.041,1.274c0.014,0.493,0.041,1.027,0.082,1.603c0.041,0.576,0.103,1.124,0.186,1.645H322.027z
		 M321.575,46.576c-0.356-0.055-0.698-0.088-1.027-0.103c-0.329-0.014-0.727-0.021-1.192-0.021c-0.384,0-0.986,0.021-1.809,0.062
		c-0.821,0.041-1.65,0.192-2.486,0.452c-0.836,0.261-1.569,0.679-2.199,1.254c-0.631,0.575-0.945,1.384-0.945,2.425
		c0,0.329,0.062,0.699,0.186,1.11c0.123,0.41,0.342,0.801,0.657,1.171c0.314,0.37,0.746,0.679,1.295,0.925
		c0.548,0.247,1.26,0.37,2.137,0.37c1.974,0,3.438-0.74,4.398-2.22c0.219-0.355,0.391-0.698,0.514-1.027s0.212-0.699,0.268-1.11
		c0.054-0.41,0.096-0.883,0.123-1.418C321.52,47.912,321.548,47.289,321.575,46.576z"/>
	<path d="M331.81,38.356l-0.041-2.385h3.863l0.041,3.33c0.109-0.22,0.295-0.535,0.556-0.945c0.26-0.411,0.644-0.822,1.15-1.233
		s1.157-0.774,1.952-1.089c0.795-0.315,1.781-0.473,2.96-0.473c0.466,0,1.116,0.068,1.952,0.205
		c0.836,0.138,1.665,0.445,2.486,0.925c0.822,0.479,1.534,1.186,2.138,2.117c0.603,0.932,0.904,2.192,0.904,3.781v14.016h-3.946
		V43.494c0-0.685-0.068-1.329-0.205-1.933c-0.138-0.602-0.438-1.137-0.904-1.603c-0.493-0.466-1.062-0.815-1.706-1.048
		s-1.295-0.35-1.952-0.35c-0.713,0-1.391,0.123-2.034,0.37c-0.645,0.246-1.213,0.631-1.706,1.15
		c-0.493,0.521-0.891,1.165-1.192,1.932c-0.302,0.768-0.452,1.672-0.452,2.713v11.879h-3.863V38.356z"/>
	<path d="M370.486,26.93h3.863v26.347c0,0.109,0.007,0.295,0.021,0.555c0.014,0.261,0.027,0.549,0.041,0.863
		c0.014,0.315,0.027,0.637,0.041,0.966s0.034,0.631,0.062,0.904h-3.863l-0.082-3.288c-0.164,0.302-0.377,0.645-0.637,1.027
		c-0.261,0.384-0.665,0.768-1.213,1.151c-0.85,0.575-1.733,0.973-2.651,1.191s-1.733,0.329-2.445,0.329
		c-0.686,0-1.535-0.123-2.549-0.37c-1.014-0.246-1.986-0.74-2.918-1.479c-0.932-0.74-1.733-1.795-2.404-3.165
		c-0.672-1.37-1.007-3.191-1.007-5.467c0-1.973,0.26-3.664,0.78-5.076c0.521-1.411,1.213-2.575,2.076-3.493s1.855-1.597,2.979-2.035
		c1.124-0.438,2.288-0.657,3.494-0.657c1.096,0,2.027,0.144,2.795,0.432c0.767,0.287,1.397,0.623,1.891,1.007s0.869,0.768,1.13,1.15
		c0.261,0.385,0.459,0.686,0.597,0.904V26.93z M370.609,45.979c0-1.51-0.151-2.712-0.452-3.605
		c-0.302-0.893-0.672-1.613-1.109-2.163c-0.411-0.549-0.994-1.037-1.747-1.463c-0.754-0.426-1.679-0.639-2.774-0.639
		c-0.96,0-1.761,0.172-2.404,0.515c-0.645,0.344-1.172,0.783-1.583,1.319c-0.411,0.535-0.733,1.126-0.966,1.771
		c-0.233,0.646-0.404,1.278-0.514,1.896c-0.109,0.618-0.172,1.182-0.185,1.689c-0.015,0.509-0.021,0.873-0.021,1.093
		c0,0.906,0.075,1.833,0.226,2.781c0.15,0.947,0.432,1.8,0.843,2.555s0.986,1.374,1.727,1.854c0.739,0.481,1.698,0.722,2.877,0.722
		c1.507,0,2.678-0.357,3.514-1.071s1.439-1.545,1.809-2.493c0.37-0.948,0.589-1.875,0.658-2.781
		C370.574,47.051,370.609,46.392,370.609,45.979z"/>
	<path d="M388.814,24.095c1.105,0,2.146,0.21,3.125,0.628c0.978,0.418,1.828,0.988,2.551,1.711s1.297,1.573,1.722,2.551
		c0.426,0.979,0.639,2.027,0.639,3.146c0,1.135-0.213,2.19-0.639,3.168c-0.425,0.979-1.002,1.832-1.732,2.562
		c-0.729,0.73-1.584,1.305-2.562,1.723s-2.013,0.627-3.104,0.627c-1.092,0-2.123-0.209-3.094-0.627s-1.821-0.992-2.551-1.723
		c-0.73-0.729-1.312-1.583-1.744-2.562c-0.432-0.978-0.648-2.033-0.648-3.168c0-1.119,0.217-2.168,0.648-3.146
		c0.433-0.978,1.018-1.828,1.754-2.551c0.737-0.723,1.591-1.293,2.562-1.711C386.713,24.305,387.736,24.095,388.814,24.095z
		 M388.814,25.052c-0.965,0-1.875,0.188-2.732,0.563c-0.857,0.376-1.608,0.882-2.254,1.52c-0.645,0.639-1.155,1.386-1.53,2.243
		c-0.376,0.858-0.563,1.775-0.563,2.753c0,1.007,0.188,1.942,0.563,2.807c0.375,0.865,0.886,1.619,1.53,2.265
		c0.646,0.645,1.396,1.151,2.254,1.52c0.857,0.369,1.768,0.553,2.732,0.553c0.978,0,1.894-0.188,2.753-0.563
		c0.857-0.375,1.608-0.886,2.253-1.53c0.646-0.645,1.151-1.399,1.521-2.265c0.367-0.864,0.553-1.792,0.553-2.785
		c0-0.949-0.181-1.853-0.542-2.71s-0.861-1.608-1.499-2.254c-0.638-0.645-1.39-1.158-2.254-1.541S389.806,25.052,388.814,25.052z
		 M385.88,27.752h3.062c0.156,0,0.396,0.011,0.723,0.031c0.326,0.021,0.652,0.1,0.979,0.234c0.325,0.135,0.612,0.351,0.86,0.648
		s0.372,0.716,0.372,1.254c0,0.071-0.007,0.195-0.021,0.372c-0.015,0.178-0.075,0.372-0.181,0.585
		c-0.106,0.213-0.27,0.425-0.489,0.638s-0.528,0.376-0.925,0.489c0.453,0.113,0.769,0.283,0.946,0.51
		c0.177,0.228,0.301,0.61,0.372,1.148c0.07,0.539,0.134,1.021,0.191,1.445c0.056,0.426,0.162,0.851,0.318,1.275h-1.233
		c-0.042-0.141-0.081-0.272-0.116-0.393c-0.036-0.12-0.067-0.263-0.096-0.426c-0.029-0.162-0.061-0.357-0.096-0.584
		c-0.036-0.227-0.074-0.511-0.117-0.851c-0.028-0.326-0.078-0.596-0.148-0.808c-0.071-0.213-0.174-0.383-0.309-0.511
		s-0.315-0.216-0.542-0.266s-0.518-0.074-0.872-0.074h-1.488v3.911h-1.19V27.752z M387.07,31.451h1.871
		c0.142,0,0.312-0.007,0.511-0.021c0.198-0.014,0.386-0.063,0.563-0.148c0.177-0.085,0.325-0.216,0.446-0.394
		c0.12-0.177,0.181-0.429,0.181-0.755c0-0.34-0.061-0.603-0.181-0.786c-0.121-0.185-0.266-0.319-0.437-0.404
		c-0.17-0.085-0.354-0.135-0.553-0.148c-0.198-0.015-0.375-0.021-0.531-0.021h-1.871V31.451z"/>
</g>
<g>
	<path fill="#0071B9" d="M73.993,59.416c-4.689-0.812-9.544-1.253-14.458-1.253c-6.869,0-13.493,0.84-19.85,2.478
		c-6.297,1.649-12.99,2.528-19.827,2.528c-2.441,0-4.804-0.103-7.145-0.342l26.955-46.71l16.304,28.176
		c-5.62,0.247-11.009,1.052-16.288,2.405c-3.817,0.98-7.744,1.679-11.774,2.076l-4.91,8.503c5.725-0.224,11.337-1.086,16.684-2.424
		c6.354-1.644,12.975-2.493,19.843-2.493c3.635,0,7.283,0.243,10.802,0.71l-5.166-8.944L51.811,20.997L39.686,0L0,68.732
		c6.332,1.73,12.978,2.566,19.853,2.566c6.84,0,13.536-0.836,19.833-2.566c6.354-1.57,12.975-2.474,19.843-2.474
		c6.838,0,13.489,0.903,19.841,2.474L73.993,59.416z"/>
</g>
<g id="CLAIM_x5F_EN_x5F_vec">
	<g>
		<path d="M96.378,72.723h6.953c3.85-0.173,7.183,1.264,7.183,5.804c0,4.338-3.534,5.717-7.355,5.805H99.25v9.135h-2.873V72.723z
			 M103.762,81.859c0.345,0,3.735,0.172,3.735-3.333s-3.39-3.333-3.735-3.333H99.25v6.666H103.762z"/>
	</g>
	<g>
		<path d="M116.805,93.466h-2.729V79.043h2.729v2.787h0.057c0.403-1.981,2.241-2.988,4.224-2.988c0.345,0,0.632,0.029,0.948,0.029
			v2.586c-0.374-0.145-0.804-0.145-1.178-0.145c-3.448,0.115-4.051,1.953-4.051,4.999V93.466z"/>
	</g>
	<g>
		<path d="M126.918,86.772c-0.201,2.528,0.833,5.143,3.62,5.143c2.126,0,3.189-0.833,3.505-2.931h2.873
			c-0.431,3.276-2.959,4.912-6.407,4.912c-4.626,0-6.465-3.275-6.465-7.526c0-4.225,2.126-7.758,6.694-7.758
			c4.31,0.086,6.35,2.815,6.35,6.811v1.35H126.918z M134.216,84.876c0.058-2.413-1.034-4.28-3.678-4.28
			c-2.27,0-3.62,1.924-3.62,4.28H134.216z"/>
	</g>
	<g>
		<path d="M149.127,83.668c-0.144-1.809-1.005-3.072-2.959-3.072c-2.614,0-3.62,2.269-3.62,5.66c0,3.39,1.005,5.659,3.62,5.659
			c1.811,0,2.931-1.178,3.074-3.247h2.73c-0.23,3.247-2.644,5.229-5.833,5.229c-4.625,0-6.465-3.275-6.465-7.526
			c0-4.225,2.126-7.758,6.694-7.758c3.046,0,5.344,1.926,5.488,5.056H149.127z"/>
	</g>
	<g>
		<path d="M155.304,72.723h3.247v2.959h-3.247V72.723z M155.563,93.466V79.043h2.729v14.423H155.563z"/>
	</g>
	<g>
		<path d="M168.089,78.612c2.729,0,5.803,1.15,5.602,4.425h-2.873c0.114-1.839-1.293-2.441-2.873-2.441
			c-1.466,0-2.644,0.689-2.644,2.298s2.471,1.724,3.505,2.039c2.442,0.806,5.257,1.093,5.257,4.338c0,3.534-3.448,4.626-6.406,4.626
			c-3.017,0-5.545-1.378-5.517-4.712h2.873c0.058,1.782,1.264,2.73,2.931,2.73c1.608,0,3.247-0.633,3.247-2.501
			c0-3.216-8.763-0.804-8.763-6.436C162.429,79.962,165.475,78.612,168.089,78.612z"/>
	</g>
	<g>
		<path d="M179.61,86.772c-0.201,2.528,0.833,5.143,3.62,5.143c2.126,0,3.189-0.833,3.505-2.931h2.873
			c-0.431,3.276-2.959,4.912-6.407,4.912c-4.625,0-6.465-3.275-6.465-7.526c0-4.225,2.126-7.758,6.694-7.758
			c4.31,0.086,6.35,2.815,6.35,6.811v1.35H179.61z M186.908,84.876c0.058-2.413-1.034-4.28-3.678-4.28
			c-2.269,0-3.62,1.924-3.62,4.28H186.908z"/>
	</g>
	<g>
		<path d="M193.89,93.466V72.723h2.729v20.743H193.89z"/>
	</g>
	<g>
		<path d="M206.302,98.982h-2.787l2.184-5.574l-6.005-14.365h3.045l4.512,11.378l4.596-11.378h2.931L206.302,98.982z"/>
	</g>
	<g>
		<path d="M228.539,84.1v9.366h-2.874V72.723h7.414c3.476,0,7.067,1.092,7.067,5.201c0,2.499-1.495,4.423-3.907,4.997v0.058
			c2.499,0.604,2.843,1.927,3.16,4.253c0.316,2.069,0.547,4.282,1.293,6.234h-3.074c-0.259-1.235-0.604-2.585-0.748-3.82
			c-0.229-1.867-0.229-3.562-1.177-4.598c-0.833-0.948-1.983-0.861-3.133-0.948H228.539z M228.482,81.63h4.739
			c3.189-0.145,3.907-1.581,3.907-3.218c0-1.64-0.718-3.075-3.907-3.219h-4.739V81.63z"/>
	</g>
	<g>
		<path d="M244.742,72.723h3.248v2.959h-3.248V72.723z M245.001,93.466V79.043h2.73v14.423H245.001z"/>
	</g>
	<g>
		<path d="M262.871,79.043h2.816c-0.087,0.862-0.172,1.725-0.172,2.587v10.142c0,5.285-2.299,7.441-7.585,7.441
			c-3.104,0-5.316-1.322-5.345-4.654h2.874c0.115,1.925,1.436,2.671,3.36,2.671c3.879,0,3.879-3.218,3.966-6.463h-0.087
			c-0.861,1.723-2.959,2.44-4.74,2.44c-4.396,0-6.149-3.104-6.149-7.153c0-4.167,2.328-7.441,6.695-7.441
			c1.407,0,2.959,0.575,3.851,1.896c0.057,0.057,0.431,0.89,0.431,0.689L262.871,79.043z M258.733,91.226
			c2.961,0,4.053-2.528,4.053-5.315s-1.092-5.314-4.053-5.314c-3.188,0-4.05,3.046-4.05,5.314
			C254.684,88.18,255.545,91.226,258.733,91.226z"/>
	</g>
	<g>
		<path d="M270.484,93.466V72.723h2.729v8.245h0.059c1.034-1.608,2.585-2.355,4.684-2.355c3.764,0,4.94,2.5,4.94,5.085v9.769h-2.729
			v-8.533c0-2.528-0.661-4.165-3.219-4.224c-1.092-0.027-2.759,0.806-3.273,2.011c-0.634,1.494-0.462,2.53-0.462,3.334v7.412
			H270.484z"/>
	</g>
	<g>
		<path d="M288.185,79.043V75.97l2.728-0.862v3.936l3.332-0.086v2.04l-3.332-0.029v9.309c0,1.035,0.805,1.523,1.781,1.523
			c0.431,0,1.005-0.057,1.438-0.173v2.098c-0.634,0.028-1.236,0.172-1.869,0.172c-0.661,0-1.177-0.027-1.838-0.144
			c-0.431-0.086-1.15-0.314-1.609-0.948c-0.487-0.689-0.631-0.746-0.631-2.672v-9.165l-2.472,0.029v-2.04L288.185,79.043z"/>
	</g>
	<g>
		<path d="M297.349,93.466v-3.448h3.332v3.448H297.349z"/>
	</g>
</g>
</svg>
